# xmcd
#
# Track frame offsets:
#	150
#	15674
#	40446
#	65535
#	87740
#	123791
#	144491
#	158579
#	169538
#	182411
#	193306
#	217219
#	240194
#	251884
#	265412
#	275968
#	294090
#	317941
#
# Disc length: 4419 seconds
#
# Revision: 2
# Processed by: cddbd v1.4b42PL1 Copyright (c) Steve Scherf et al.
# Submitted via: EZCDDA 4.3.2
#
DISCID=11114112
DTITLE=Nouvel artiste - Nouveau titre
DYEAR=1900
DGENRE=
TTITLE0=Otis Rush - Homework
TTITLE1=Otis Rush - I Can't Quit You Baby
TTITLE2=Otis Rush - I Got a Woman
TTITLE3=Otis Rush - I Got The Blues
TTITLE4=Otis Rush - I Wonder Why
TTITLE5=Otis Rush - If I Had Any Sense I'd Go Back Home
TTITLE6=Otis Rush - If You Were Mine
TTITLE7=Otis Rush - Into The Preacher
TTITLE8=Otis Rush - It Takes Time
TTITLE9=Otis Rush - It's A Mean Old World
TTITLE10=Otis Rush - It's My Own Fault
TTITLE11=Otis Rush - I've Got News For You
TTITLE12=Otis Rush - Jump Sister Bessie
TTITLE13=Otis Rush - Keep On Lovin' Me Baby
TTITLE14=Otis Rush - Little Red Rooster
TTITLE15=Otis Rush - May be the last time
TTITLE16=Otis Rush - My Jug And I
TTITLE17=Otis Rush - Love That Woman
EXTD=
EXTT0=
EXTT1=
EXTT2=
EXTT3=
EXTT4=
EXTT5=
EXTT6=
EXTT7=
EXTT8=
EXTT9=
EXTT10=
EXTT11=
EXTT12=
EXTT13=
EXTT14=
EXTT15=
EXTT16=
EXTT17=
PLAYORDER=
